 <svg width="20" height="20" viewBox="0 0 24 24" fill="none" xmlns="http://www.w3.org/2000/svg">
<path d="M16 4H18C19.1046 4 20 4.89543 20 6V18C20 19.1046 19.1046 20 18 20H6C4.89543 20 4 19.1046 4 18V6C4 4.89543 4.89543 4 6 4H8" stroke="#374151" strokeWidth="2" strokeLinecap="round" strokeLinejoin="round"/>
<path d="M15 2H9C7.89543 2 7 2.89543 7 4V16C7 17.1046 7.89543 18 9 18H15C16.1046 18 17 17.1046 17 16V4C17 2.89543 16.1046 2 15 2Z" stroke="#374151" strokeWidth="2" strokeLinecap="round" strokeLinejoin="round"/>
</svg>